TITLE ""
FILE "Step3_Track55.mp3" MP3
  TRACK 01 AUDIO
    TITLE "Step3_Track55_01"
    INDEX 01 00:00:00
  TRACK 02 AUDIO
    TITLE "Step3_Track55_02"
    INDEX 01 00:00:24
  TRACK 03 AUDIO
    TITLE "Step3_Track55_03"
    INDEX 01 00:01:69
  TRACK 04 AUDIO
    TITLE "Step3_Track55_04"
    INDEX 01 00:02:56
  TRACK 05 AUDIO
    TITLE "Step3_Track55_05"
    INDEX 01 00:03:48
  TRACK 06 AUDIO
    TITLE "Step3_Track55_06"
    INDEX 01 00:03:65
  TRACK 07 AUDIO
    TITLE "Step3_Track55_07"
    INDEX 01 00:05:64
  TRACK 08 AUDIO
    TITLE "Step3_Track55_08"
    INDEX 01 00:06:03
  TRACK 09 AUDIO
    TITLE "Step3_Track55_09"
    INDEX 01 00:07:01
  TRACK 10 AUDIO
    TITLE "Step3_Track55_10"
    INDEX 01 00:07:03
  TRACK 11 AUDIO
    TITLE "Step3_Track55_11"
    INDEX 01 00:09:46
  TRACK 12 AUDIO
    TITLE "Step3_Track55_12"
    INDEX 01 00:09:64
  TRACK 13 AUDIO
    TITLE "Step3_Track55_13"
    INDEX 01 00:10:64
  TRACK 14 AUDIO
    TITLE "Step3_Track55_14"
    INDEX 01 00:10:67
  TRACK 15 AUDIO
    TITLE "Step3_Track55_15"
    INDEX 01 00:13:05
  TRACK 16 AUDIO
    TITLE "Step3_Track55_16"
    INDEX 01 00:13:25
  TRACK 17 AUDIO
    TITLE "Step3_Track55_17"
    INDEX 01 00:14:24
  TRACK 18 AUDIO
    TITLE "Step3_Track55_18"
    INDEX 01 00:14:26
  TRACK 19 AUDIO
    TITLE "Step3_Track55_19"
    INDEX 01 00:16:21
  TRACK 20 AUDIO
    TITLE "Step3_Track55_20"
    INDEX 01 00:16:43
  TRACK 21 AUDIO
    TITLE "Step3_Track55_21"
    INDEX 01 00:17:42
  TRACK 22 AUDIO
    TITLE "Step3_Track55_22"
    INDEX 01 00:17:62
  TRACK 23 AUDIO
    TITLE "Step3_Track55_23"
    INDEX 01 00:21:01
  TRACK 24 AUDIO
    TITLE "Step3_Track55_24"
    INDEX 01 00:21:09
  TRACK 25 AUDIO
    TITLE "Step3_Track55_25"
    INDEX 01 00:22:10
  TRACK 26 AUDIO
    TITLE "Step3_Track55_26"
    INDEX 01 00:22:12
  TRACK 27 AUDIO
    TITLE "Step3_Track55_27"
    INDEX 01 00:24:38
  TRACK 28 AUDIO
    TITLE "Step3_Track55_28"
    INDEX 01 00:24:42
  TRACK 29 AUDIO
    TITLE "Step3_Track55_29"
    INDEX 01 00:25:40
  TRACK 30 AUDIO
    TITLE "Step3_Track55_30"
    INDEX 01 00:25:42
  TRACK 31 AUDIO
    TITLE "Step3_Track55_31"
    INDEX 01 00:27:48
  TRACK 32 AUDIO
    TITLE "Step3_Track55_32"
    INDEX 01 00:27:70
  TRACK 33 AUDIO
    TITLE "Step3_Track55_33"
    INDEX 01 00:28:60
  TRACK 34 AUDIO
    TITLE "Step3_Track55_34"
    INDEX 01 00:28:61
  TRACK 35 AUDIO
    TITLE "Step3_Track55_35"
    INDEX 01 00:31:36
  TRACK 36 AUDIO
    TITLE "Step3_Track55_36"
    INDEX 01 00:31:40
  TRACK 37 AUDIO
    TITLE "Step3_Track55_37"
    INDEX 01 00:32:36
  TRACK 38 AUDIO
    TITLE "Step3_Track55_38"
    INDEX 01 00:32:38
  TRACK 39 AUDIO
    TITLE "Step3_Track55_39"
    INDEX 01 00:34:66
  TRACK 40 AUDIO
    TITLE "Step3_Track55_40"
    INDEX 01 00:34:74
  TRACK 41 AUDIO
    TITLE "Step3_Track55_41"
    INDEX 01 00:35:71
  TRACK 42 AUDIO
    TITLE "Step3_Track55_42"
    INDEX 01 00:35:73
  TRACK 43 AUDIO
    TITLE "Step3_Track55_43"
    INDEX 01 00:38:38
